<svg xmlns="http://www.w3.org/2000/svg" width="432" height="421" viewBox="0 0 432 421">
<g>
<path d="M 210.67 335.75 C209.73,337.24 209.07,337.27 206.75,335.92 C205.28,335.06 205.00,333.40 205.00,325.51 C205.00,315.50 204.16,313.64 200.94,316.56 C199.87,317.52 199.00,318.01 199.00,317.65 C199.00,317.28 197.61,318.23 195.90,319.74 C191.94,323.28 190.58,323.22 190.16,319.52 C189.47,313.47 191.59,309.77 198.05,305.71 C201.47,303.56 204.50,300.83 205.04,299.39 C206.40,295.82 206.23,289.42 204.75,288.30 C203.64,287.45 194.16,285.00 192.02,285.00 C191.56,285.00 189.73,287.59 187.94,290.75 C184.61,296.65 183.98,301.23 185.99,304.99 C186.82,306.54 186.64,307.33 185.14,308.73 C181.77,311.87 178.62,314.00 177.37,314.00 C176.69,314.00 175.44,314.70 174.59,315.55 C173.73,316.41 172.24,317.27 171.27,317.47 C170.30,317.67 168.74,318.13 167.81,318.50 C166.45,319.04 166.00,318.42 165.52,315.33 C165.19,313.23 164.21,308.99 163.35,305.92 C161.30,298.61 161.74,296.99 166.46,294.34 C170.56,292.04 175.86,283.69 175.95,279.37 C176.00,277.33 169.35,270.91 166.09,269.85 C165.31,269.60 162.90,271.32 160.70,273.71 L 156.72 278.03 L 157.38 286.89 L 158.05 295.75 L 154.53 298.84 C149.74,303.04 148.00,302.19 147.98,295.64 C147.96,286.20 145.25,285.82 137.45,294.15 C133.85,298.01 131.95,299.27 129.60,299.37 C126.73,299.49 126.48,299.23 126.20,295.88 C125.92,292.57 126.42,291.79 132.07,286.67 C135.84,283.26 138.04,280.54 137.71,279.68 C137.19,278.33 132.78,277.00 128.80,277.00 C127.73,277.00 126.22,276.36 125.43,275.57 C124.20,274.34 124.57,273.67 128.18,270.57 C132.85,266.58 135.19,266.24 142.59,268.49 C142.92,268.59 143.23,268.68 143.52,268.77 C146.15,269.58 147.43,269.97 148.56,269.70 C149.74,269.42 150.75,268.41 153.00,266.38 C157.45,262.36 157.73,261.21 155.36,256.65 C154.45,254.92 153.42,252.87 153.06,252.10 C151.75,249.30 148.57,249.21 141.68,251.76 C135.59,254.01 134.71,254.68 133.33,258.13 C132.48,260.25 131.39,261.74 130.89,261.43 C130.40,261.13 130.00,261.37 130.00,261.96 C130.00,263.19 127.64,262.77 117.76,259.77 C114.05,258.65 110.57,257.19 110.02,256.53 C109.32,255.69 110.39,253.28 113.61,248.41 C116.14,244.61 119.03,240.63 120.05,239.58 C121.85,237.71 122.02,237.70 125.89,239.45 C129.79,241.21 129.98,241.20 135.68,239.01 C140.88,237.01 143.03,236.30 143.86,234.83 C144.44,233.80 144.36,232.39 144.21,229.89 C144.19,229.57 144.17,229.23 144.15,228.87 C143.96,225.37 143.60,222.16 143.34,221.75 C143.09,221.34 139.77,221.00 135.98,221.00 C130.06,221.00 128.91,221.29 127.99,223.03 C127.39,224.14 126.52,224.82 126.06,224.54 C125.60,224.25 123.57,226.04 121.55,228.51 C118.20,232.59 117.80,234.49 120.80,232.00 C121.50,231.43 121.46,231.64 120.72,232.50 C119.49,233.93 108.63,234.96 107.44,233.77 C107.17,233.50 108.98,231.01 111.47,228.24 C118.24,220.71 118.21,220.68 105.83,220.98 C99.25,221.14 97.87,220.87 96.08,219.08 C93.30,216.30 93.46,214.57 96.75,211.97 C99.18,210.05 100.41,209.84 107.25,210.23 C113.63,210.59 115.00,210.41 115.00,209.19 C115.00,207.83 108.75,199.33 106.68,197.88 C104.89,196.62 108.02,195.96 113.69,196.41 C119.38,196.86 119.63,197.01 125.50,203.45 L 131.50 210.04 L 137.28 210.02 C141.05,210.01 143.18,209.56 143.39,208.75 C146.08,198.63 146.15,197.54 144.20,195.96 C143.15,195.11 139.06,193.31 135.13,191.97 C129.21,189.96 127.63,189.75 126.00,190.77 C122.64,192.87 120.03,192.23 118.20,188.87 C117.27,187.15 115.04,183.56 113.25,180.90 C111.46,178.23 110.00,175.39 110.00,174.58 C110.00,173.62 112.86,172.25 118.39,170.56 C129.83,167.07 131.64,167.17 133.66,171.42 C135.30,174.85 137.21,176.13 146.50,180.02 L 151.50 182.11 L 153.20 179.80 C154.14,178.54 155.83,176.30 156.96,174.84 C159.83,171.10 159.53,170.01 154.43,165.65 L 149.92 161.79 L 132.50 163.16 L 127.77 159.46 C125.16,157.42 123.28,155.36 123.57,154.88 C123.87,154.40 126.96,154.00 130.44,154.00 C134.94,154.00 137.13,153.55 138.05,152.44 C139.15,151.11 138.46,150.06 133.17,145.16 C127.81,140.18 127.00,138.96 127.00,135.82 C127.00,129.03 133.28,129.86 140.60,137.60 C143.41,140.57 146.16,143.00 146.72,143.00 C147.73,143.00 149.00,136.24 149.00,130.86 C149.00,127.02 150.65,127.26 154.43,131.63 L 157.57 135.27 L 156.76 143.73 L 155.95 152.20 L 161.22 157.07 C164.13,159.75 166.76,161.96 167.09,161.97 C168.47,162.04 177.00,154.61 177.00,153.34 C177.00,151.20 171.46,140.71 169.36,138.87 C168.34,137.97 166.45,136.91 165.16,136.52 C163.08,135.89 162.87,135.34 163.29,131.65 C164.37,122.16 166.40,113.78 167.73,113.27 C169.22,112.70 169.91,113.01 180.00,118.84 C183.57,120.90 185.22,121.81 185.79,123.19 C186.29,124.36 185.98,125.88 185.41,128.74 C185.39,128.85 185.36,128.96 185.34,129.08 C184.74,132.08 190.62,146.64 192.77,147.46 C193.53,147.76 194.98,147.54 196.01,147.00 C197.03,146.45 199.16,146.00 200.73,146.00 C202.31,146.00 204.14,145.46 204.80,144.80 C206.10,143.50 206.43,134.16 205.23,132.45 C204.83,131.87 201.70,129.45 198.28,127.07 C194.86,124.69 191.85,122.02 191.61,121.12 C190.55,117.25 189.93,108.00 190.74,108.00 C191.22,108.00 193.99,110.03 196.89,112.50 C204.45,118.95 205.00,118.68 205.00,108.55 C205.00,100.78 205.21,99.88 207.60,97.49 C210.20,94.89 212.76,94.63 212.20,97.03 C211.44,100.24 211.21,142.80 211.93,146.64 C212.38,149.05 212.35,150.72 211.87,150.42 C211.39,150.12 211.00,150.58 211.00,151.44 C211.00,152.54 210.02,153.00 207.63,153.00 C203.88,153.00 193.76,155.99 187.26,159.02 C184.93,160.11 182.62,161.00 182.12,161.00 C181.62,161.00 180.95,161.68 180.64,162.50 C180.32,163.32 179.42,164.00 178.64,164.00 C177.85,164.00 176.95,164.68 176.63,165.51 C176.32,166.34 175.71,166.92 175.28,166.79 C173.78,166.35 163.17,177.94 161.40,181.95 C160.42,184.18 159.31,186.00 158.94,186.00 C158.15,186.00 155.59,192.67 153.96,199.00 C153.33,201.48 152.38,204.02 151.85,204.66 C151.33,205.30 150.71,209.13 150.48,213.16 C150.20,218.25 150.33,219.58 150.92,217.50 C151.66,214.87 151.78,215.17 151.88,219.94 C152.04,227.04 155.40,238.98 159.35,246.46 C163.50,254.33 176.74,267.52 184.79,271.81 C193.41,276.40 201.48,279.00 207.14,279.00 C211.55,279.00 212.02,279.23 212.64,281.71 C213.02,283.21 212.77,288.94 212.10,294.46 C211.43,299.98 211.01,311.25 211.17,319.50 C211.33,327.75 211.10,335.06 210.67,335.75 Z" fill="rgb(35,149,233)"/>
<path d="M 225.50 266.49 C211.74,269.39 202.04,267.87 188.59,260.70 C177.93,255.02 168.47,243.79 164.40,232.00 C162.94,227.79 162.50,223.69 162.50,214.50 L 162.50 202.50 L 166.70 193.76 C175.91,174.58 190.98,164.37 211.65,163.28 C220.30,162.83 222.90,163.08 229.14,164.97 C239.56,168.14 243.60,170.45 250.77,177.33 C257.67,183.96 261.96,190.66 265.06,199.66 C267.66,207.22 267.86,222.39 265.44,229.57 C258.75,249.46 244.71,262.44 225.50,266.49 ZM 203.50 246.62 C209.43,248.17 221.82,247.49 227.00,245.35 C234.41,242.27 239.00,235.63 239.00,227.97 C239.00,223.50 237.89,220.76 234.63,217.15 C231.54,213.75 227.62,211.96 217.73,209.44 C212.90,208.20 207.89,206.51 206.60,205.66 C203.19,203.42 202.74,199.41 205.54,196.16 C207.70,193.65 208.33,193.50 216.66,193.50 C223.12,193.50 226.42,193.97 228.90,195.25 C229.09,195.35 229.27,195.44 229.45,195.53 C231.47,196.57 232.32,197.01 232.84,196.76 C233.26,196.56 233.45,195.90 233.88,194.75 C236.52,187.58 236.39,187.06 231.28,184.73 C224.14,181.46 208.46,181.53 201.68,184.87 C194.68,188.32 191.49,193.56 191.52,201.61 C191.53,207.09 191.92,208.33 194.62,211.68 C197.89,215.72 202.29,217.81 214.25,220.98 C223.57,223.45 226.00,225.21 226.00,229.45 C226.00,231.97 225.29,233.42 223.25,235.03 C220.80,236.97 219.59,237.16 212.00,236.78 C205.85,236.48 202.34,235.76 199.29,234.18 C196.97,232.98 194.68,232.00 194.20,232.00 C193.34,232.00 191.00,238.53 191.00,240.92 C191.00,242.30 196.43,244.78 203.50,246.62 ZM 232.20 269.58 C229.29,270.36 226.14,270.96 225.20,270.91 C224.27,270.86 225.62,270.24 228.21,269.53 C238.34,266.74 245.70,262.37 253.80,254.32 C266.45,241.77 270.55,230.80 269.84,211.43 C269.48,201.72 269.57,200.95 270.64,204.50 C273.72,214.72 270.97,232.57 264.66,243.31 C256.79,256.70 245.18,266.10 232.20,269.58 ZM 210.67 335.75 C211.10,335.06 211.33,327.75 211.17,319.50 C211.01,311.25 211.43,299.98 212.10,294.46 C212.43,291.80 212.65,289.08 212.75,286.81 C212.90,292.08 213.00,300.13 213.00,308.88 C213.00,328.33 212.67,335.93 211.80,336.80 C210.12,338.48 208.58,338.30 206.65,336.17 C206.45,335.94 206.27,335.69 206.10,335.39 C206.29,335.61 206.50,335.78 206.75,335.92 C209.07,337.27 209.73,337.24 210.67,335.75 ZM 248.01 317.49 C243.01,321.17 242.00,321.60 242.00,320.08 C242.00,319.58 243.47,318.25 245.27,317.14 C251.66,313.19 253.18,310.72 253.72,303.32 C254.34,294.97 255.86,292.39 261.67,289.82 C267.58,287.21 268.40,288.15 262.63,290.94 C260.17,292.13 257.66,293.71 257.04,294.45 C256.43,295.19 255.54,299.10 255.07,303.15 C253.95,312.74 253.64,313.36 248.01,317.49 ZM 323.51 249.99 C319.74,252.15 317.02,252.98 313.88,252.92 L 309.50 252.83 L 315.11 251.63 C321.60,250.23 323.87,248.89 330.20,242.74 C335.93,237.17 338.35,232.61 338.16,227.75 C338.08,225.69 338.46,224.00 339.01,224.00 C340.30,224.00 340.29,230.12 338.98,233.55 C337.25,238.09 329.03,246.83 323.51,249.99 ZM 227.94 357.53 C224.68,359.22 223.00,359.40 223.00,358.08 C223.00,357.57 224.55,356.65 226.43,356.02 C231.37,354.39 236.62,348.10 238.53,341.55 C239.41,338.50 239.83,335.05 239.46,333.88 C239.01,332.45 239.15,331.97 239.89,332.43 C241.27,333.29 241.31,338.33 239.98,343.12 C238.82,347.32 232.06,355.40 227.94,357.53 ZM 210.48 152.48 C210.84,152.23 211.00,151.89 211.00,151.44 C211.00,150.58 211.39,150.12 211.87,150.42 C212.35,150.72 212.38,149.05 211.93,146.64 C211.27,143.15 211.41,107.63 212.01,98.81 C213.09,110.90 213.26,149.98 211.89,151.63 C211.63,151.95 211.12,152.24 210.48,152.48 ZM 314.61 156.16 C312.35,157.30 309.43,159.19 308.11,160.36 C306.50,161.81 305.87,162.01 306.18,161.00 C306.43,160.18 308.14,158.60 309.98,157.50 C311.81,156.40 314.82,154.08 316.66,152.35 C319.70,149.48 320.00,148.68 320.02,143.35 C320.03,139.20 320.31,137.94 321.00,139.00 C324.13,143.85 320.68,153.12 314.61,156.16 ZM 319.12 263.63 C317.84,264.53 315.49,267.31 313.90,269.83 C312.30,272.34 311.00,273.82 311.00,273.13 C311.00,269.42 316.91,262.50 321.87,260.42 L 321.97 260.38 C324.51,259.31 325.45,258.91 325.80,259.21 C326.00,259.39 326.00,259.80 326.00,260.46 L 326.00 260.50 C326.00,261.39 325.08,262.00 323.72,262.00 C322.47,262.00 320.40,262.73 319.12,263.63 ZM 244.45 95.96 C243.50,99.56 242.35,103.18 241.89,104.00 C240.45,106.60 240.82,102.98 242.60,96.96 C243.54,93.81 244.01,89.66 243.74,87.03 L 243.27 82.50 L 244.72 85.96 C246.02,89.05 245.99,90.13 244.45,95.96 ZM 290.21 123.80 C288.53,127.48 286.95,131.40 286.70,132.50 C286.35,133.97 286.20,133.77 286.12,131.71 C286.05,130.18 286.91,127.15 288.01,124.98 C289.12,122.81 290.41,119.34 290.87,117.27 C291.55,114.29 291.88,113.88 292.49,115.30 C292.99,116.48 292.20,119.41 290.21,123.80 ZM 164.38 159.89 C163.45,159.09 162.36,158.12 161.22,157.07 L 155.95 152.20 L 156.76 143.73 L 157.52 135.79 C159.28,138.88 159.00,141.71 157.38,150.21 C156.94,152.47 157.66,153.67 161.68,157.44 C162.64,158.34 163.57,159.19 164.38,159.89 ZM 153.12 228.81 C152.39,225.52 151.94,222.43 151.88,219.94 C151.78,215.17 151.66,214.87 150.92,217.50 C150.33,219.58 150.20,218.25 150.48,213.16 C150.71,209.13 151.33,205.30 151.85,204.66 C152.38,204.02 153.33,201.48 153.96,199.00 C154.74,195.98 155.73,192.88 156.64,190.47 C151.90,203.52 150.74,216.58 153.12,228.81 ZM 121.30 231.73 C121.33,231.62 121.17,231.70 120.80,232.00 C117.80,234.49 118.20,232.59 121.55,228.51 C123.57,226.04 125.60,224.25 126.06,224.54 C126.28,224.68 126.60,224.59 126.94,224.34 L 124.69 227.40 C123.23,229.39 122.19,230.77 121.30,231.73 ZM 226.50 153.00 C229.33,153.72 229.27,153.77 225.31,153.88 C223.00,153.95 220.84,153.55 220.50,153.00 C219.80,151.87 222.06,151.87 226.50,153.00 ZM 125.50 273.07 C124.51,274.21 124.63,274.78 125.43,275.57 C126.22,276.36 127.73,277.00 128.80,277.00 C130.81,277.00 132.92,277.34 134.59,277.84 C132.64,277.31 129.94,277.00 126.88,277.00 C124.74,277.00 123.00,276.59 123.00,276.08 C123.00,275.73 124.02,274.53 125.50,273.07 ZM 224.00 64.94 C224.00,66.07 223.55,67.00 223.00,67.00 C222.45,67.00 222.00,66.35 222.00,65.56 C222.00,64.77 222.45,63.84 223.00,63.50 C223.55,63.16 224.00,63.81 224.00,64.94 ZM 281.60 103.27 C281.94,103.60 282.02,104.44 281.79,105.14 C281.45,106.15 281.21,106.15 280.58,105.13 C279.75,103.78 280.59,102.25 281.60,103.27 ZM 112.14 234.26 C114.97,234.12 118.31,233.63 119.90,232.99 C118.73,233.81 117.56,233.99 115.56,234.15 C114.46,234.24 113.25,234.27 112.14,234.26 ZM 111.38 228.34 C116.00,223.21 117.50,221.51 114.23,221.05 C117.50,221.51 116.02,223.19 111.47,228.24 C109.71,230.20 108.29,232.01 107.70,233.01 C107.88,232.29 109.00,231.00 111.38,228.34 ZM 211.45 95.39 C210.56,95.28 209.09,96.00 207.60,97.49 C209.03,96.06 210.71,95.07 211.35,95.28 C211.38,95.29 211.42,95.33 211.45,95.39 ZM 212.48 281.13 C212.33,280.61 212.17,280.22 211.93,279.92 C212.15,280.11 212.30,280.33 212.39,280.58 C212.42,280.66 212.45,280.85 212.48,281.13 ZM 133.16 267.46 C135.56,266.70 138.14,267.14 142.59,268.49 C138.16,267.15 135.55,266.73 133.16,267.46 ZM 157.73 187.82 C158.25,186.68 158.69,186.00 158.94,186.00 C158.72,186.00 158.25,186.72 157.73,187.82 ZM 197.10 155.29 C193.68,156.37 190.10,157.70 187.26,159.02 C190.12,157.69 193.69,156.36 197.10,155.29 ZM 152.38 129.48 C151.75,128.90 151.22,128.51 150.77,128.31 C151.22,128.51 151.75,128.90 152.38,129.48 Z" fill="rgb(87,87,88)"/>
<path d="M 319.12 263.63 C319.53,263.34 320.03,263.07 320.56,262.83 C316.98,264.86 313.06,270.54 309.61,278.85 C307.51,283.93 304.06,290.27 301.95,292.94 C296.41,299.95 287.31,306.55 278.33,310.06 C266.93,314.51 264.11,316.11 260.98,319.87 C257.42,324.15 255.86,323.38 257.23,318.01 C257.97,315.06 259.90,312.45 264.51,308.14 C271.43,301.66 273.00,299.36 273.00,295.64 C273.00,290.64 267.87,288.71 262.43,291.03 C262.50,291.00 262.57,290.97 262.63,290.94 C268.40,288.15 267.58,287.21 261.67,289.82 C255.86,292.39 254.34,294.97 253.72,303.32 C253.18,310.72 251.66,313.19 245.27,317.14 C243.89,318.00 242.70,318.98 242.22,319.61 C242.15,318.67 242.14,317.33 242.22,315.86 C242.56,309.56 240.89,308.49 238.03,313.18 C235.26,317.73 235.43,323.63 238.50,329.40 C239.08,330.50 239.56,331.50 239.92,332.45 C239.15,331.97 239.01,332.45 239.46,333.88 C239.83,335.05 239.41,338.50 238.53,341.55 C236.62,348.10 231.37,354.39 226.43,356.02 C224.90,356.53 223.59,357.23 223.15,357.75 C223.38,357.02 224.03,355.96 225.10,354.60 C226.25,353.13 227.43,350.23 227.71,348.15 C228.14,344.89 227.85,344.13 225.61,342.66 C222.68,340.75 222.03,336.31 224.53,335.35 C225.37,335.03 226.53,333.88 227.11,332.80 C228.37,330.44 226.20,327.52 222.48,326.58 L 220.11 325.99 L 220.44 303.37 C220.80,279.25 220.84,279.05 225.87,279.02 C227.17,279.01 230.54,278.27 233.37,277.39 C251.37,271.73 264.90,260.37 272.53,244.50 C277.93,233.28 279.30,226.37 278.78,213.03 C278.38,202.56 278.00,200.70 274.69,192.79 C270.42,182.58 262.44,172.08 254.28,165.93 C246.90,160.35 234.41,155.03 226.70,154.18 L 223.76 153.86 C224.25,153.89 224.78,153.90 225.31,153.88 C229.27,153.77 229.33,153.72 226.50,153.00 C223.17,152.15 221.06,151.94 220.52,152.37 L 220.89 126.05 C221.23,102.07 221.51,98.09 223.12,94.55 C225.88,88.47 225.54,83.96 222.00,79.50 C218.43,75.00 218.26,72.34 221.19,66.71 L 222.05 65.06 C222.02,65.23 222.00,65.40 222.00,65.56 C222.00,66.35 222.45,67.00 223.00,67.00 C223.43,67.00 223.79,66.44 223.94,65.66 L 224.05 66.30 C224.83,70.85 225.00,71.03 232.00,74.59 C241.17,79.25 245.03,82.58 245.46,88.05 C245.30,87.41 245.06,86.75 244.72,85.96 L 243.27 82.50 L 243.74 87.03 C244.01,89.66 243.54,93.81 242.60,96.96 C240.82,102.98 240.45,106.60 241.89,104.00 C242.18,103.47 242.76,101.80 243.39,99.72 C242.31,103.87 242.42,105.08 243.47,107.59 C247.10,116.28 258.06,110.91 254.73,102.09 C253.21,98.08 254.29,97.29 258.54,99.32 C263.03,101.46 264.03,104.24 263.33,112.68 C262.91,117.68 263.18,120.50 264.33,123.25 C267.54,130.93 275.49,130.52 278.55,122.52 C280.04,118.60 280.04,117.99 278.59,115.17 C276.48,111.09 276.58,106.69 278.83,104.65 C279.46,104.09 279.95,103.67 280.35,103.42 C280.17,103.85 280.20,104.51 280.58,105.13 C281.21,106.15 281.45,106.15 281.79,105.14 C281.94,104.67 281.96,104.13 281.85,103.73 C282.03,104.11 282.20,104.66 282.39,105.40 C282.75,106.84 284.79,108.86 287.48,110.44 C289.98,111.90 291.49,113.13 292.14,114.65 C291.73,114.16 291.40,114.91 290.87,117.27 C290.41,119.34 289.12,122.81 288.01,124.98 C286.91,127.15 286.05,130.18 286.12,131.71 C286.20,133.77 286.35,133.97 286.70,132.50 C286.86,131.83 287.51,130.10 288.38,128.01 C285.96,134.64 287.03,138.00 291.58,138.00 C294.85,138.00 296.33,135.58 295.57,131.51 C294.99,128.44 295.16,128.00 296.92,128.00 C298.03,128.00 299.40,128.87 299.96,129.93 C301.40,132.61 301.21,138.15 299.61,140.25 C296.27,144.65 302.29,151.46 307.26,148.91 C310.88,147.04 314.00,143.79 314.00,141.87 C314.00,138.54 311.69,135.01 308.12,132.91 C304.71,130.90 304.64,130.74 306.47,129.40 C309.95,126.85 316.06,130.17 319.73,136.59 C320.14,137.30 320.49,138.02 320.78,138.73 C320.25,138.26 320.02,139.67 320.02,143.35 C320.00,148.68 319.70,149.48 316.66,152.35 C314.82,154.08 311.81,156.40 309.98,157.50 C308.14,158.60 306.43,160.18 306.18,161.00 C305.87,162.01 306.50,161.81 308.11,160.36 C308.60,159.93 309.30,159.40 310.11,158.84 C305.21,162.51 305.11,166.60 309.59,171.92 C311.62,174.34 312.97,175.00 315.89,175.00 C322.21,175.00 323.94,171.17 319.49,166.99 C316.32,164.01 317.57,162.62 322.06,164.12 C331.15,167.16 333.73,174.99 328.14,182.60 C324.75,187.21 320.93,190.85 317.86,192.39 C316.65,193.00 314.57,195.52 313.25,198.00 C311.35,201.54 310.94,203.55 311.29,207.44 C311.84,213.49 314.44,216.00 320.16,216.00 C324.69,216.00 328.22,213.12 330.57,207.49 C331.85,204.43 331.85,203.57 330.55,200.46 C329.24,197.32 329.24,196.85 330.55,196.34 C332.70,195.52 337.76,197.87 340.03,200.77 C343.90,205.69 341.75,212.01 334.51,217.00 C331.87,218.81 329.75,221.16 329.36,222.70 C327.98,228.18 333.53,231.17 336.55,226.56 C337.44,225.21 338.15,224.43 338.69,224.20 C338.32,224.71 338.10,226.11 338.16,227.75 C338.35,232.61 335.93,237.17 330.20,242.74 C323.87,248.89 321.60,250.23 315.11,251.63 L 309.50 252.83 L 313.88 252.92 C314.79,252.93 315.66,252.88 316.53,252.74 C315.62,252.92 314.73,253.02 313.88,253.02 C309.39,253.04 301.92,255.86 298.77,258.71 C296.38,260.87 296.49,266.23 298.96,268.47 C301.56,270.81 303.49,269.92 305.86,265.28 C308.79,259.53 318.10,256.18 324.42,258.61 C324.80,258.75 325.11,258.93 325.35,259.12 C324.81,259.18 323.81,259.60 321.97,260.38 L 321.87 260.42 C316.91,262.50 311.00,269.42 311.00,273.13 C311.00,273.82 312.30,272.34 313.90,269.83 C315.49,267.31 317.84,264.53 319.12,263.63 ZM 257.11 143.10 C261.99,147.67 270.00,146.86 270.00,141.81 C270.00,140.30 269.24,140.05 265.25,140.26 L 260.50 140.50 L 260.19 136.25 C259.82,131.16 257.78,130.59 255.53,134.95 C253.42,139.03 253.56,139.79 257.11,143.10 ZM 255.01 303.66 C255.00,303.93 255.00,304.20 255.00,304.48 C255.00,306.91 254.64,308.97 253.82,310.83 C254.31,309.18 254.61,306.98 255.01,303.66 ZM 260.16 292.25 C260.07,292.31 259.97,292.38 259.87,292.44 C258.22,293.57 257.07,294.77 256.30,296.35 C256.56,295.40 256.82,294.72 257.04,294.45 C257.45,293.96 258.67,293.11 260.16,292.25 ZM 316.94 154.60 C319.33,152.54 321.07,149.50 321.80,146.48 C321.30,149.59 319.65,152.41 316.94,154.60 ZM 325.61 248.62 C328.56,246.49 331.88,243.32 334.52,240.23 C334.16,240.67 333.77,241.13 333.37,241.60 C331.00,244.37 328.34,246.76 325.61,248.62 ZM 223.56 63.51 C223.40,63.38 223.21,63.37 223.00,63.50 C222.92,63.55 222.85,63.61 222.78,63.67 L 223.39 62.50 ZM 220.51 153.01 C220.70,153.30 221.38,153.54 222.31,153.70 L 220.50 153.50 ZM 339.56 231.50 C340.10,228.86 340.11,225.77 339.58,224.54 C339.86,225.04 340.00,226.01 340.00,227.43 C340.00,228.91 339.87,230.22 339.56,231.50 ZM 240.91 337.72 C240.88,339.32 240.56,341.05 239.98,343.12 C240.50,341.28 240.80,339.39 240.91,337.72 ZM 227.94 357.53 C224.98,359.06 223.33,359.36 223.09,358.53 C223.48,359.33 225.12,358.99 227.94,357.53 ZM 242.47 320.90 C242.71,320.91 243.06,320.79 243.56,320.52 C243.05,320.83 242.70,321.00 242.59,321.00 C242.54,321.00 242.50,320.97 242.47,320.90 ZM 314.61 156.16 C314.65,156.14 314.68,156.13 314.72,156.11 C314.45,156.26 314.17,156.42 313.88,156.56 C313.70,156.65 313.52,156.75 313.34,156.84 C313.78,156.59 314.21,156.37 314.61,156.16 ZM 291.23 121.42 C291.56,120.58 291.84,119.80 292.06,119.11 C291.85,119.81 291.57,120.58 291.23,121.42 ZM 326.00 260.51 L 326.00 260.45 C326.00,260.33 326.00,260.22 326.00,260.12 C326.02,260.25 326.02,260.38 326.00,260.51 Z" fill="rgb(236,114,22)"/>
<path d="M 0.00 210.50 L 0.00 0.00 L 216.00 0.00 L 432.00 0.00 L 432.00 210.50 L 432.00 421.00 L 216.00 421.00 L 0.00 421.00 L 0.00 210.50 ZM 227.94 357.53 C232.06,355.40 238.82,347.32 239.98,343.12 C241.54,337.52 241.21,334.51 238.50,329.40 C235.43,323.63 235.26,317.73 238.03,313.18 C240.89,308.49 242.56,309.56 242.22,315.86 C242.07,318.69 242.23,321.00 242.59,321.00 C242.94,321.00 245.39,319.42 248.02,317.48 C253.03,313.81 255.00,310.13 255.00,304.48 C255.00,297.86 256.18,294.95 259.87,292.44 C266.13,288.19 273.00,289.86 273.00,295.64 C273.00,299.36 271.43,301.66 264.51,308.14 C259.90,312.45 257.97,315.06 257.23,318.01 C255.86,323.38 257.42,324.15 260.98,319.87 C264.11,316.11 266.93,314.51 278.33,310.06 C287.31,306.55 296.41,299.95 301.95,292.94 C304.06,290.27 307.51,283.93 309.61,278.85 C313.98,268.31 319.13,262.00 323.35,262.00 C326.27,262.00 327.03,259.61 324.42,258.61 C318.10,256.18 308.79,259.53 305.86,265.28 C303.49,269.92 301.56,270.81 298.96,268.47 C296.49,266.23 296.38,260.87 298.77,258.71 C301.92,255.86 309.39,253.04 313.88,253.02 C319.78,252.99 327.50,248.47 333.37,241.60 C338.54,235.55 340.00,232.43 340.00,227.43 C340.00,223.35 338.85,223.06 336.55,226.56 C333.53,231.17 327.98,228.18 329.36,222.70 C329.75,221.16 331.87,218.81 334.51,217.00 C341.75,212.01 343.90,205.69 340.03,200.77 C337.76,197.87 332.70,195.52 330.55,196.34 C329.24,196.85 329.24,197.32 330.55,200.46 C331.85,203.57 331.85,204.43 330.57,207.49 C328.22,213.12 324.69,216.00 320.16,216.00 C314.44,216.00 311.84,213.49 311.29,207.44 C310.94,203.55 311.35,201.54 313.25,198.00 C314.57,195.52 316.65,193.00 317.86,192.39 C320.93,190.85 324.75,187.21 328.14,182.60 C333.73,174.99 331.15,167.16 322.06,164.12 C317.57,162.62 316.32,164.01 319.49,166.99 C323.94,171.17 322.21,175.00 315.89,175.00 C312.97,175.00 311.62,174.34 309.59,171.92 C304.16,165.47 305.46,160.83 313.88,156.56 C321.82,152.54 324.20,144.41 319.73,136.59 C316.06,130.17 309.95,126.85 306.47,129.40 C304.64,130.74 304.71,130.90 308.12,132.91 C311.69,135.01 314.00,138.54 314.00,141.87 C314.00,143.79 310.88,147.04 307.26,148.91 C302.29,151.46 296.27,144.65 299.61,140.25 C301.21,138.15 301.40,132.61 299.96,129.93 C299.40,128.87 298.03,128.00 296.92,128.00 C295.16,128.00 294.99,128.44 295.57,131.51 C296.33,135.58 294.85,138.00 291.58,138.00 C286.19,138.00 285.68,133.29 290.06,124.04 C293.83,116.08 293.42,113.91 287.48,110.44 C284.79,108.86 282.75,106.84 282.39,105.40 C281.67,102.56 281.25,102.47 278.83,104.65 C276.58,106.69 276.48,111.09 278.59,115.17 C280.04,117.99 280.04,118.60 278.55,122.52 C275.49,130.52 267.54,130.93 264.33,123.25 C263.18,120.50 262.91,117.68 263.33,112.68 C264.03,104.24 263.03,101.46 258.54,99.32 C254.29,97.29 253.21,98.08 254.73,102.09 C258.06,110.91 247.10,116.28 243.47,107.59 C242.24,104.63 242.30,103.47 244.09,97.16 C247.44,85.31 245.33,81.37 232.00,74.59 C225.00,71.03 224.83,70.85 224.05,66.30 L 223.39 62.50 L 221.19 66.71 C218.26,72.34 218.43,75.00 222.00,79.50 C225.54,83.96 225.88,88.47 223.12,94.55 C221.51,98.09 221.23,102.07 220.89,126.05 L 220.50 153.50 L 226.70 154.18 C234.41,155.03 246.90,160.35 254.28,165.93 C262.44,172.08 270.42,182.58 274.69,192.79 C278.00,200.70 278.38,202.56 278.78,213.03 C279.30,226.37 277.93,233.28 272.53,244.50 C264.90,260.37 251.37,271.73 233.37,277.39 C230.54,278.27 227.17,279.01 225.87,279.02 C220.84,279.05 220.80,279.25 220.44,303.37 L 220.11 325.99 L 222.48 326.58 C226.20,327.52 228.37,330.44 227.11,332.80 C226.53,333.88 225.37,335.03 224.53,335.35 C222.03,336.31 222.68,340.75 225.61,342.66 C227.85,344.13 228.14,344.89 227.71,348.15 C227.43,350.23 226.25,353.13 225.10,354.60 C221.57,359.09 222.69,360.25 227.94,357.53 ZM 211.80 336.80 C212.67,335.93 213.00,328.33 213.00,308.88 C213.00,294.19 212.73,281.45 212.39,280.58 C211.96,279.45 210.45,279.00 207.05,279.00 C201.48,279.00 193.37,276.38 184.79,271.81 C176.74,267.52 163.50,254.33 159.35,246.46 C150.44,229.60 149.52,209.91 156.72,190.25 C157.57,187.91 158.57,186.00 158.94,186.00 C159.31,186.00 160.42,184.18 161.40,181.95 C163.17,177.94 173.78,166.35 175.28,166.79 C175.71,166.92 176.32,166.34 176.63,165.51 C176.95,164.68 177.85,164.00 178.64,164.00 C179.42,164.00 180.32,163.32 180.64,162.50 C180.95,161.68 181.62,161.00 182.12,161.00 C182.62,161.00 184.93,160.11 187.26,159.02 C193.68,156.03 203.87,153.00 207.51,153.00 C209.29,153.00 211.27,152.38 211.89,151.63 C213.50,149.69 212.98,95.83 211.35,95.28 C210.71,95.07 209.02,96.07 207.60,97.49 C205.21,99.88 205.00,100.78 205.00,108.55 C205.00,118.68 204.45,118.95 196.89,112.50 C193.99,110.03 191.22,108.00 190.74,108.00 C189.93,108.00 190.55,117.25 191.61,121.12 C191.85,122.02 194.86,124.69 198.28,127.07 C201.70,129.45 204.83,131.87 205.23,132.45 C206.43,134.16 206.10,143.50 204.80,144.80 C204.14,145.46 202.31,146.00 200.73,146.00 C199.16,146.00 197.03,146.45 196.01,147.00 C194.98,147.54 193.53,147.76 192.77,147.46 C190.62,146.64 184.74,132.08 185.34,129.08 C186.65,122.55 186.75,122.73 180.00,118.84 C169.91,113.01 169.22,112.70 167.73,113.27 C166.40,113.78 164.37,122.16 163.29,131.65 C162.87,135.34 163.08,135.89 165.16,136.52 C166.45,136.91 168.34,137.97 169.36,138.87 C171.46,140.71 177.00,151.20 177.00,153.34 C177.00,154.60 168.49,162.02 167.09,161.98 C166.76,161.97 164.33,159.93 161.68,157.44 C157.66,153.67 156.94,152.47 157.38,150.21 C159.50,139.11 159.33,137.68 155.31,132.72 C150.94,127.31 149.00,126.74 149.00,130.86 C149.00,136.24 147.73,143.00 146.72,143.00 C146.16,143.00 143.41,140.57 140.60,137.60 C133.28,129.86 127.00,129.03 127.00,135.82 C127.00,138.96 127.81,140.18 133.17,145.16 C138.46,150.06 139.15,151.11 138.05,152.44 C137.13,153.55 134.94,154.00 130.44,154.00 C126.96,154.00 123.87,154.40 123.57,154.88 C123.28,155.36 125.16,157.42 127.77,159.46 L 132.50 163.16 L 141.21 162.48 L 149.92 161.79 L 154.43 165.65 C159.53,170.01 159.83,171.10 156.96,174.84 C155.83,176.30 154.14,178.54 153.20,179.80 L 151.50 182.11 L 146.50 180.02 C137.21,176.13 135.30,174.85 133.66,171.42 C131.64,167.17 129.83,167.07 118.39,170.56 C112.86,172.25 110.00,173.62 110.00,174.58 C110.00,175.39 111.46,178.23 113.25,180.90 C115.04,183.56 117.27,187.15 118.20,188.87 C120.03,192.23 122.64,192.87 126.00,190.77 C127.63,189.75 129.21,189.96 135.13,191.97 C139.06,193.31 143.15,195.11 144.20,195.96 C146.15,197.54 146.08,198.63 143.39,208.75 C143.18,209.56 141.05,210.01 137.28,210.02 L 131.50 210.04 L 125.50 203.45 C119.63,197.01 119.38,196.86 113.69,196.41 C108.02,195.96 104.89,196.62 106.68,197.88 C108.75,199.33 115.00,207.83 115.00,209.19 C115.00,210.41 113.63,210.59 107.25,210.23 C100.41,209.84 99.18,210.05 96.75,211.97 C93.46,214.57 93.30,216.30 96.08,219.08 C97.87,220.87 99.25,221.14 105.83,220.98 C118.23,220.68 118.25,220.70 111.38,228.34 C107.06,233.15 106.91,233.51 108.95,233.99 C110.15,234.27 113.13,234.35 115.56,234.15 C119.71,233.82 120.29,233.39 124.69,227.40 L 129.39 221.00 L 136.13 221.00 C139.85,221.00 143.09,221.34 143.34,221.75 C143.60,222.16 143.96,225.37 144.15,228.87 C144.54,235.98 145.01,235.41 135.68,239.01 C129.98,241.20 129.79,241.21 125.89,239.45 C122.02,237.70 121.85,237.71 120.05,239.58 C119.03,240.63 116.14,244.61 113.61,248.41 C110.39,253.28 109.32,255.69 110.02,256.53 C110.57,257.19 114.05,258.65 117.76,259.77 C127.64,262.77 130.00,263.19 130.00,261.96 C130.00,261.37 130.40,261.13 130.89,261.43 C131.39,261.74 132.48,260.25 133.33,258.13 C134.71,254.68 135.59,254.01 141.68,251.76 C148.57,249.21 151.75,249.30 153.06,252.10 C153.42,252.87 154.45,254.92 155.36,256.65 C157.73,261.21 157.45,262.36 153.00,266.38 C148.39,270.55 148.98,270.43 142.59,268.49 C134.94,266.17 132.81,266.54 127.64,271.08 C125.09,273.33 123.00,275.58 123.00,276.08 C123.00,276.59 124.74,277.00 126.88,277.00 C132.64,277.00 137.10,278.11 137.71,279.68 C138.04,280.54 135.84,283.26 132.07,286.67 C126.42,291.79 125.92,292.57 126.20,295.88 C126.48,299.23 126.73,299.49 129.60,299.37 C131.95,299.27 133.85,298.01 137.45,294.15 C145.25,285.82 147.96,286.20 147.98,295.64 C148.00,302.19 149.74,303.04 154.53,298.84 L 158.05 295.75 L 157.38 286.89 L 156.72 278.03 L 160.70 273.71 C162.90,271.32 165.31,269.60 166.09,269.85 C169.35,270.91 176.00,277.33 175.95,279.37 C175.86,283.69 170.56,292.04 166.46,294.34 C161.74,296.99 161.30,298.61 163.35,305.92 C164.21,308.99 165.19,313.23 165.52,315.33 C166.00,318.42 166.45,319.04 167.81,318.50 C168.74,318.13 170.30,317.67 171.27,317.47 C172.24,317.27 173.73,316.41 174.59,315.55 C175.44,314.70 176.69,314.00 177.37,314.00 C178.62,314.00 181.77,311.87 185.14,308.73 C186.64,307.33 186.82,306.54 185.99,304.99 C183.98,301.23 184.61,296.65 187.94,290.75 C189.73,287.59 191.56,285.00 192.02,285.00 C194.16,285.00 203.64,287.45 204.75,288.30 C206.23,289.42 206.40,295.82 205.04,299.39 C204.50,300.83 201.47,303.56 198.05,305.71 C191.59,309.77 189.47,313.47 190.16,319.52 C190.58,323.22 191.94,323.28 195.90,319.74 C197.61,318.23 199.00,317.28 199.00,317.65 C199.00,318.01 199.87,317.52 200.94,316.56 C204.14,313.66 205.00,315.50 205.00,325.23 C205.00,332.31 205.37,334.75 206.65,336.17 C208.58,338.30 210.12,338.48 211.80,336.80 ZM 232.20 269.58 C245.18,266.10 256.79,256.70 264.66,243.31 C270.97,232.57 273.72,214.72 270.64,204.50 C269.57,200.95 269.48,201.72 269.84,211.43 C270.55,230.80 266.45,241.77 253.80,254.32 C245.70,262.37 238.34,266.74 228.21,269.53 C225.62,270.24 224.27,270.86 225.20,270.91 C226.14,270.96 229.29,270.36 232.20,269.58 ZM 225.50 266.49 C244.71,262.44 258.75,249.46 265.44,229.57 C267.86,222.39 267.66,207.22 265.06,199.66 C261.96,190.66 257.67,183.96 250.77,177.33 C243.60,170.45 239.56,168.14 229.14,164.97 C222.90,163.08 220.30,162.83 211.65,163.28 C190.98,164.37 175.91,174.58 166.70,193.76 L 162.50 202.50 L 162.50 214.50 C162.50,223.69 162.94,227.79 164.40,232.00 C168.47,243.79 177.93,255.02 188.59,260.70 C202.04,267.87 211.74,269.39 225.50,266.49 ZM 257.11 143.10 C253.56,139.79 253.42,139.03 255.53,134.95 C257.78,130.59 259.82,131.16 260.19,136.25 L 260.50 140.50 L 265.25 140.26 C269.24,140.05 270.00,140.30 270.00,141.81 C270.00,146.86 261.99,147.67 257.11,143.10 ZM 203.50 246.62 C196.43,244.78 191.00,242.30 191.00,240.92 C191.00,238.53 193.34,232.00 194.20,232.00 C194.68,232.00 196.97,232.98 199.29,234.18 C202.34,235.76 205.85,236.48 212.00,236.78 C219.59,237.16 220.80,236.97 223.25,235.03 C225.29,233.42 226.00,231.97 226.00,229.45 C226.00,225.21 223.57,223.45 214.25,220.98 C202.29,217.81 197.89,215.72 194.62,211.68 C191.92,208.33 191.53,207.09 191.52,201.61 C191.49,193.56 194.68,188.32 201.68,184.87 C208.46,181.53 224.14,181.46 231.28,184.73 C236.39,187.06 236.52,187.58 233.88,194.75 C232.88,197.45 233.13,197.42 228.90,195.25 C226.42,193.97 223.12,193.50 216.66,193.50 C208.33,193.50 207.70,193.65 205.54,196.16 C202.74,199.41 203.19,203.42 206.60,205.66 C207.89,206.51 212.90,208.20 217.73,209.44 C227.62,211.96 231.54,213.75 234.63,217.15 C237.89,220.76 239.00,223.50 239.00,227.97 C239.00,235.63 234.41,242.27 227.00,245.35 C221.82,247.49 209.43,248.17 203.50,246.62 Z" fill="rgb(253,253,253)"/>
</g>
</svg>